<svg xmlns="http://www.w3.org/2000/svg" xmlns:xlink="http://www.w3.org/1999/xlink" width="285.096" height="115.484" viewBox="0 0 285.096 115.484">
  <defs>
    <clipPath id="clip-path">
      <rect id="Rectangle_1" data-name="Rectangle 1" width="285.096" height="115.484" fill="none"/>
    </clipPath>
  </defs>
  <g id="Group_2" data-name="Group 2" transform="translate(0 0)">
    <g id="Group_1" data-name="Group 1" transform="translate(0 0)" clip-path="url(#clip-path)">
      <path id="Path_1" data-name="Path 1" d="M13.777,55.12q2.469.074,4.059.073t4.076-.073q2.49-.072,3.86-.073a10.981,10.981,0,0,0,2.49-.4l.685,5.159a1.2,1.2,0,0,1-.866.252c-.217,0-.337-.06-.361-.181a5.005,5.005,0,0,0-1.244-2.615,4.7,4.7,0,0,0-2.8-.595q-3.823,0-3.969.541a14.587,14.587,0,0,0-.324,3.608V73.843a14.01,14.01,0,0,0,.324,3.355q.072.251,1.011.486a6.358,6.358,0,0,0,1.3.235c.1,0,.145.18.145.541a1.594,1.594,0,0,1-.073.5q-3.607-.179-4.185-.18-.181,0-4.328.18a.767.767,0,0,1-.144-.541c0-.337.048-.5.144-.5a6.692,6.692,0,0,0,1.389-.217q.92-.216,1.028-.5a14.345,14.345,0,0,0,.252-3.211V60.928a11.354,11.354,0,0,0-.325-3.716q-.29-.541-3.9-.541a4.687,4.687,0,0,0-2.8.595,4.976,4.976,0,0,0-1.245,2.615c-.025.121-.144.181-.361.181a1.2,1.2,0,0,1-.866-.252l.685-5.159a10.981,10.981,0,0,0,2.49.4q1.37,0,3.842.073" transform="translate(1.564 12.643)" fill="#050e10"/>
      <path id="Path_2" data-name="Path 2" d="M31.2,75.618a12.729,12.729,0,0,1,0-17.261,11.033,11.033,0,0,1,16.287,0,12.681,12.681,0,0,1,0,17.261,11.069,11.069,0,0,1-16.287,0M38.8,56.283a6.177,6.177,0,0,0-5.413,2.995A12.259,12.259,0,0,0,31.4,66.2a15.7,15.7,0,0,0,.938,5.446,10.157,10.157,0,0,0,2.922,4.275,6.892,6.892,0,0,0,4.653,1.714,5.988,5.988,0,0,0,4.04-1.5A8.828,8.828,0,0,0,46.5,72.425a13.709,13.709,0,0,0,.811-4.743,15.529,15.529,0,0,0-.938-5.429A10.17,10.17,0,0,0,43.448,58,6.891,6.891,0,0,0,38.8,56.283" transform="translate(6.438 12.67)" fill="#050e10"/>
      <path id="Path_3" data-name="Path 3" d="M58.541,54.973a9.038,9.038,0,0,1,2.489.361,10.623,10.623,0,0,1,2.49,1.082,5.717,5.717,0,0,1,2.019,2.056,5.95,5.95,0,0,1,.794,3.1A5.661,5.661,0,0,1,65.2,64.749a7.408,7.408,0,0,1-3.083,2.561c-.24.1-.314.217-.218.361a25.713,25.713,0,0,0,4.148,6.35q3.467,3.786,5.63,3.788a1.141,1.141,0,0,1,.107.5,1.228,1.228,0,0,1-.107.541,3.761,3.761,0,0,1-.975.108q-5.052,0-8.765-5.194-.578-.794-1.318-1.894t-1.084-1.588q-.344-.486-.793-1.064a6.02,6.02,0,0,0-.794-.866,3.2,3.2,0,0,0-.739-.469,4.379,4.379,0,0,0-1.335-.144,3.712,3.712,0,0,0-.433.018.51.51,0,0,0-.288.163.587.587,0,0,0-.143.432v5.3a10.5,10.5,0,0,0,.287,3.139c.121.312.547.565,1.281.757a7.134,7.134,0,0,0,1.57.288c.095,0,.145.169.145.5a1.7,1.7,0,0,1-.074.542q-3.607-.181-4.689-.181l-4.4.181a1.149,1.149,0,0,1-.108-.65c0-.312.038-.468.108-.468a6.5,6.5,0,0,0,1.409-.217q.9-.216,1.081-.542a11.415,11.415,0,0,0,.254-3.391V59.987a13.569,13.569,0,0,0-.254-3.1c-.071-.193-.427-.373-1.064-.542a6.258,6.258,0,0,0-1.426-.252c-.095,0-.144-.144-.144-.432a.914.914,0,0,1,.144-.613l4.329.071c.723,0,1.575-.023,2.561-.071s1.827-.073,2.525-.073m-.576,1.587a9.869,9.869,0,0,0-2.527.252c-.1.025-.175.115-.234.271a4.7,4.7,0,0,0-.144,1.082q-.054.848-.053,2.615v4.365q0,1.047,3.137,1.045h.9a3.931,3.931,0,0,0,2.615-1.262,4.375,4.375,0,0,0,1.353-3.355q0-5.013-5.05-5.014" transform="translate(11.332 12.718)" fill="#050e10"/>
      <path id="Path_4" data-name="Path 4" d="M89.778,72.228a23.916,23.916,0,0,1-.506,2.759,7.707,7.707,0,0,1-.72,2.471q-2.636,1.588-8.622,1.587a10.772,10.772,0,0,1-8.1-3.5,11.655,11.655,0,0,1-3.337-8.333A12.406,12.406,0,0,1,71.92,58.43a11.072,11.072,0,0,1,8.406-3.662,44.674,44.674,0,0,1,8.765.9q-.07,4.834-.071,5.194,0,.541-.756.542c-.241,0-.4-.059-.469-.181q-.111-.467-.271-.956a5.716,5.716,0,0,0-.686-1.262,5.586,5.586,0,0,0-1.262-1.335,6.8,6.8,0,0,0-2.093-.974,10.41,10.41,0,0,0-3.049-.415,7.472,7.472,0,0,0-6.023,3.12,11.012,11.012,0,0,0-2.491,7.053,13.978,13.978,0,0,0,1.01,5.375,9.41,9.41,0,0,0,3.193,4.059,8.5,8.5,0,0,0,5.178,1.6A7.172,7.172,0,0,0,86.82,75.4a4.921,4.921,0,0,0,.882-1.425q.38-.885.579-1.479c.132-.4.235-.6.307-.6a2.346,2.346,0,0,1,.522.073,3.585,3.585,0,0,1,.488.144Z" transform="translate(15.846 12.67)" fill="#050e10"/>
      <path id="Path_5" data-name="Path 5" d="M105.455,73.926V67.577l-.073-.144q-3.391-.072-5.339-.073-5.554,0-5.555.18v6.242a13.991,13.991,0,0,0,.324,3.354q.072.253,1.011.488a6.433,6.433,0,0,0,1.3.234c.073,0,.115.145.127.433a1.637,1.637,0,0,1-.054.613q-3.607-.181-4.184-.181-.183,0-4.329.181a.767.767,0,0,1-.144-.541q0-.506.144-.506a6.671,6.671,0,0,0,1.389-.215c.613-.145.956-.313,1.028-.506a14.332,14.332,0,0,0,.252-3.21v-14a14.352,14.352,0,0,0-.252-3.211q-.109-.288-1.028-.522a6.2,6.2,0,0,0-1.389-.235q-.144,0-.144-.469a.834.834,0,0,1,.144-.576c.312.023.949.066,1.912.126s1.767.09,2.417.09c.48,0,.949-.011,1.406-.036s.951-.054,1.479-.09l1.3-.09a1.435,1.435,0,0,1,.054.595c-.012.3-.054.451-.127.451a6.089,6.089,0,0,0-1.3.252q-.94.253-1.011.5a14.016,14.016,0,0,0-.324,3.355v5.375l.071.108q3.535.074,5.483.073,2.093,0,5.339-.073a.209.209,0,0,0,.073-.144V59.929a14.353,14.353,0,0,0-.252-3.211q-.109-.288-1.028-.522a6.2,6.2,0,0,0-1.389-.235c-.1,0-.144-.149-.144-.451a.87.87,0,0,1,.144-.595c.288.023.925.066,1.912.126s1.8.09,2.453.09c.457,0,.914-.011,1.37-.036s.943-.054,1.462-.09l1.281-.09a1.732,1.732,0,0,1,.071.541c0,.337-.048.5-.144.5a6.075,6.075,0,0,0-1.3.252q-.94.253-1.011.5a14.414,14.414,0,0,0-.288,3.355V73.782a14.4,14.4,0,0,0,.288,3.354q.072.253,1.011.488a6.419,6.419,0,0,0,1.3.234c.1,0,.144.181.144.542a1.6,1.6,0,0,1-.071.5q-3.607-.181-4.113-.181-.216,0-4.365.181a.87.87,0,0,1-.144-.595c0-.3.048-.452.144-.452a6.672,6.672,0,0,0,1.389-.215c.613-.145.956-.313,1.028-.506a14.332,14.332,0,0,0,.252-3.21" transform="translate(20.482 12.704)" fill="#050e10"/>
      <path id="Path_6" data-name="Path 6" d="M134.587,54.941c.481,0,.949-.012,1.407-.036s.949-.054,1.479-.091.962-.065,1.3-.09a1.7,1.7,0,0,1,.073.542c0,.337-.049.5-.144.5a6.1,6.1,0,0,0-1.3.252q-.938.253-1.01.5a13.938,13.938,0,0,0-.325,3.355v13.6a13,13,0,0,0,.325,3.174q.107.36,2.453.361h1.731a11.26,11.26,0,0,0,4.546-.613,3.921,3.921,0,0,0,1.208-1.281,8.416,8.416,0,0,0,1.064-2.363c.048-.145.217-.217.506-.217a1.319,1.319,0,0,1,.9.217q-.181.469-.559,1.5t-.6,1.66q-.216.632-.468,1.462a8.943,8.943,0,0,0-.325,1.37q-1.877,0-5.862-.108t-6.439-.108l-4.365.108a.94.94,0,0,1-.108-.577c0-.312.036-.469.108-.469a6.467,6.467,0,0,0,1.406-.215q.9-.218,1.082-.542a11.485,11.485,0,0,0,.252-3.391V59.811a14.807,14.807,0,0,0-.252-3.283q-.107-.288-1.028-.523a6.174,6.174,0,0,0-1.389-.234q-.144,0-.144-.469a.838.838,0,0,1,.144-.578q.469.037,1.912.127t2.417.09" transform="translate(30.093 12.66)" fill="#050e10"/>
      <path id="Path_7" data-name="Path 7" d="M152.976,59.753a14.334,14.334,0,0,0-.252-3.21q-.109-.29-1.028-.523a6.2,6.2,0,0,0-1.389-.235q-.144,0-.144-.469a.834.834,0,0,1,.144-.576q4.148.181,4.329.18.576,0,4.184-.18a1.728,1.728,0,0,1,.073.541c0,.337-.049.5-.145.5a6.089,6.089,0,0,0-1.3.252q-.938.253-1.01.506a13.934,13.934,0,0,0-.325,3.354V73.606a13.938,13.938,0,0,0,.325,3.355q.072.251,1.01.486a6.372,6.372,0,0,0,1.3.235c.1,0,.145.18.145.541a1.594,1.594,0,0,1-.073.5q-3.607-.179-4.184-.18-.181,0-4.329.18a.767.767,0,0,1-.144-.541c0-.337.048-.5.144-.5a6.691,6.691,0,0,0,1.389-.217q.92-.216,1.028-.5a14.346,14.346,0,0,0,.252-3.211Z" transform="translate(34.739 12.663)" fill="#050e10"/>
      <path id="Path_8" data-name="Path 8" d="M162.042,67.067a12.4,12.4,0,0,1,3.427-8.784,11.069,11.069,0,0,1,8.405-3.661,37.98,37.98,0,0,1,8.55,1.623q.142,4.113.144,4.473,0,.541-.757.541c-.241,0-.4-.059-.469-.18q-.975-4.943-7.36-4.943a7.388,7.388,0,0,0-6.024,3.066,12.035,12.035,0,0,0,.234,14.772,8.137,8.137,0,0,0,6.655,3.374,10.543,10.543,0,0,0,4.69-.794c.167-.073.252-.252.252-.541l-.036-2.959V72.8a10.5,10.5,0,0,0-.289-3.1q-.144-.36-1.172-.577a8.357,8.357,0,0,0-1.6-.217c-.1,0-.145-.149-.145-.451a.863.863,0,0,1,.145-.595q4.618.181,4.725.18.29,0,3.9-.18a1.56,1.56,0,0,1,.073.5c0,.361-.048.541-.144.541a4.807,4.807,0,0,0-.992.235,6.207,6.207,0,0,0-1.1.414q-.362.253-.361,2.417,0,.759.054,1.641t.054.957a3.28,3.28,0,0,0,.252,1.262,3.625,3.625,0,0,1,.252.722q0,.29-.9.649c-.048.025-.283.115-.7.271s-.691.259-.811.307-.392.139-.811.271a9.644,9.644,0,0,1-1.011.271c-.252.048-.613.121-1.082.215a11.507,11.507,0,0,1-1.335.2q-.63.054-1.479.107t-1.785.054a10.775,10.775,0,0,1-8.1-3.5,11.656,11.656,0,0,1-3.337-8.334" transform="translate(37.488 12.636)" fill="#050e10"/>
      <path id="Path_9" data-name="Path 9" d="M201.391,73.75V67.4l-.073-.144q-3.391-.072-5.339-.073-5.554,0-5.555.18v6.242a13.992,13.992,0,0,0,.324,3.354c.048.169.384.331,1.011.488a6.433,6.433,0,0,0,1.3.234c.073,0,.115.145.127.433a1.637,1.637,0,0,1-.054.613q-3.607-.181-4.184-.181-.183,0-4.329.181a.767.767,0,0,1-.144-.541q0-.506.144-.506a6.671,6.671,0,0,0,1.389-.215c.613-.145.956-.313,1.028-.506a14.331,14.331,0,0,0,.252-3.21v-14a14.351,14.351,0,0,0-.252-3.211q-.109-.288-1.028-.522a6.2,6.2,0,0,0-1.389-.235q-.144,0-.144-.469a.834.834,0,0,1,.144-.576c.312.023.949.066,1.912.126s1.767.09,2.417.09c.48,0,.949-.011,1.406-.036s.951-.054,1.479-.09l1.3-.09a1.435,1.435,0,0,1,.054.595c-.012.3-.054.451-.127.451a6.089,6.089,0,0,0-1.3.252q-.94.253-1.011.5a14.017,14.017,0,0,0-.324,3.355v5.375l.071.108q3.535.074,5.483.073,2.093,0,5.339-.073a.209.209,0,0,0,.073-.144V59.753a14.353,14.353,0,0,0-.252-3.211q-.109-.288-1.028-.522a6.2,6.2,0,0,0-1.389-.235c-.1,0-.144-.149-.144-.451a.87.87,0,0,1,.144-.595c.288.023.925.066,1.912.126s1.8.09,2.453.09c.457,0,.914-.011,1.37-.036s.943-.054,1.462-.09l1.281-.09a1.732,1.732,0,0,1,.071.541c0,.337-.048.5-.144.5a6.076,6.076,0,0,0-1.3.252q-.94.253-1.011.5a14.415,14.415,0,0,0-.288,3.355V73.606a14.4,14.4,0,0,0,.288,3.354q.072.253,1.011.488a6.42,6.42,0,0,0,1.3.234c.1,0,.144.181.144.542a1.6,1.6,0,0,1-.071.5q-3.607-.181-4.113-.181-.216,0-4.365.181a.87.87,0,0,1-.144-.595c0-.3.048-.452.144-.452a6.671,6.671,0,0,0,1.389-.215c.613-.145.956-.313,1.028-.506a14.332,14.332,0,0,0,.252-3.21" transform="translate(42.677 12.663)" fill="#050e10"/>
      <path id="Path_10" data-name="Path 10" d="M214.426,55.076q2.469.074,4.059.073t4.076-.073q2.49-.072,3.86-.073a10.981,10.981,0,0,0,2.49-.4l.685,5.159a1.2,1.2,0,0,1-.866.252c-.217,0-.337-.06-.361-.181a5.005,5.005,0,0,0-1.244-2.615,4.7,4.7,0,0,0-2.8-.595q-3.823,0-3.969.541a14.588,14.588,0,0,0-.324,3.608V73.8a14.011,14.011,0,0,0,.324,3.355c.048.167.384.33,1.011.486a6.358,6.358,0,0,0,1.3.235c.1,0,.145.18.145.541a1.594,1.594,0,0,1-.073.5q-3.607-.179-4.185-.18-.181,0-4.328.18a.767.767,0,0,1-.144-.541c0-.337.048-.5.144-.5a6.692,6.692,0,0,0,1.389-.217q.92-.216,1.028-.5a14.346,14.346,0,0,0,.252-3.211V60.884a11.354,11.354,0,0,0-.325-3.716q-.29-.541-3.9-.541a4.687,4.687,0,0,0-2.8.595,4.976,4.976,0,0,0-1.245,2.615c-.025.121-.144.181-.361.181a1.2,1.2,0,0,1-.866-.252l.685-5.159a10.982,10.982,0,0,0,2.49.4q1.37,0,3.842.073" transform="translate(47.983 12.633)" fill="#050e10"/>
      <path id="Path_11" data-name="Path 11" d="M124.436,85.095h-6.909a.835.835,0,0,0,0,1.671h.744L119.782,104a1.243,1.243,0,0,0,2.476,0l1.511-17.238h.667a.835.835,0,0,0,0-1.671m3.113-33.783,3.72-6.586h-20.5l3.72,6.586ZM117.983,83.48l.113,1.283h5.849l.112-1.283h.129a.591.591,0,0,0,.591-.591v-.3a.591.591,0,0,0-.591-.591h-6.333a.668.668,0,0,0-.667.667v.143a.667.667,0,0,0,.667.667Zm11.236-31.3h-16.36a1.165,1.165,0,0,0-1.175,1.063,1.139,1.139,0,0,0,1.137,1.215h2.619l1.479,16.872h8.2L126.6,54.462h2.581a1.165,1.165,0,0,0,1.175-1.064,1.139,1.139,0,0,0-1.137-1.214m-4.757,18.273H121.7v-16h4.252Zm.677,1.561h-8.315a1,1,0,0,0,0,2.01h.331l.661,7.544h6.408l.66-7.544h.255a1,1,0,1,0,0-2.01" transform="translate(25.626 10.347)" fill="#050e10"/>
      <path id="Path_12" data-name="Path 12" d="M128.5,51.1s6.648-4.754,7.927-12.249c1.185-6.941.911-12.832,3.463-14.931a6.354,6.354,0,0,0-4.967,5.015s-3.325-8.516-1.229-15.515c0,0-2.825,2.858-3.371,9.916,0,0-.046-4.608-5.1-8.983C121.328,10.982,120.253,5.132,123.4,0c0,0-6.692,3.36-5.558,15.982,1.185,13.183-2.459,12.249-2.459,12.249a20.761,20.761,0,0,0,0-12.716s.091,7.817-3.371,11.433-2.688-2.391-.82-5.483c0,0-6.2,5.483-5.285,15.982s10.661,14.583,10.661,14.583-5.376-7-3.28-15.4c0,0,1.822,4.784,4.281,5.95s5.923-10.732,4.647-19.131c0,0,6.014,7.583,4.829,16.1,0,0,3.189-2.567,3.463-4.667,0,0,1.549,10.033-2,16.216" transform="translate(24.479 0)" fill="#00a3d5"/>
      <line id="Line_1" data-name="Line 1" x2="133.462" transform="translate(0 63.884)" fill="none" stroke="#050e10" stroke-miterlimit="10" stroke-width="0.5"/>
      <line id="Line_2" data-name="Line 2" x2="124.925" transform="translate(160.171 63.884)" fill="none" stroke="#050e10" stroke-miterlimit="10" stroke-width="0.5"/>
      <line id="Line_3" data-name="Line 3" x2="132.483" transform="translate(6.852 96.313)" fill="none" stroke="#050e10" stroke-miterlimit="10" stroke-width="0.25"/>
      <line id="Line_4" data-name="Line 4" x2="124.919" transform="translate(153.994 96.313)" fill="none" stroke="#050e10" stroke-miterlimit="10" stroke-width="0.25"/>
    </g>
  </g>
</svg>
